<?xml version="1.0" encoding="UTF-8"?>
<svg xmlns="http://www.w3.org/2000/svg" xmlns:xlink="http://www.w3.org/1999/xlink" width="100px" height="150px" viewBox="0 0 100 150" version="1.1">
<g id="surface1">
<path style=" stroke:none;fill-rule:nonzero;fill:rgb(0%,0%,0%);fill-opacity:1;" d="M 52.144531 0.875 C 48.648438 3.1875 46.523438 5.027344 44.828125 7.273438 C 42.53125 10.28125 41.4375 13.199219 41.4375 16.320312 C 41.4375 18.585938 41.890625 20.226562 43.261719 22.941406 C 43.90625 24.222656 44.980469 26.289062 45.621094 27.566406 C 46.265625 28.824219 46.929688 30.53125 47.101562 31.316406 C 47.554688 33.222656 47.53125 36.816406 47.101562 38.589844 C 46.4375 41.238281 44.378906 44.671875 42.382812 46.402344 C 41.824219 46.875 41.351562 47.253906 41.308594 47.253906 C 41.265625 47.253906 41.566406 46.582031 41.976562 45.730469 C 43.089844 43.4375 43.457031 41.6875 43.457031 38.835938 C 43.457031 37.085938 43.347656 35.964844 43.070312 35.019531 C 42.253906 32.214844 40.300781 29.070312 37.792969 26.488281 L 36.484375 25.144531 L 36.933594 26.265625 C 38.863281 30.980469 38.605469 35.941406 36.289062 39.53125 C 35.816406 40.273438 34.296875 42.160156 32.921875 43.753906 C 29.597656 47.546875 28.09375 49.636719 26.957031 52.082031 C 25.648438 54.886719 25.132812 56.976562 24.984375 60.050781 C 24.855469 62.945312 25.089844 65.035156 25.863281 67.570312 C 26.144531 68.492188 26.3125 69.253906 26.226562 69.253906 C 25.820312 69.253906 23.71875 66.988281 22.796875 65.527344 C 21.230469 63.105469 20.757812 61.308594 20.886719 58.414062 C 21.015625 56.054688 21.25 55.136719 23.03125 50.0625 C 23.675781 48.175781 23.738281 47.839844 23.738281 45.234375 C 23.738281 42.628906 23.695312 42.339844 23.160156 41.171875 C 22.839844 40.5 22.324219 39.691406 22.003906 39.375 L 21.445312 38.835938 L 21.59375 40.519531 C 21.765625 42.539062 21.378906 44.582031 20.4375 46.535156 C 20.09375 47.234375 18.742188 49.386719 17.433594 51.296875 C 13.269531 57.335938 12.003906 60.679688 11.984375 65.664062 C 11.984375 69.703125 12.605469 72.421875 14.816406 77.761719 C 16.660156 82.230469 17.023438 83.554688 17.132812 86.429688 C 17.304688 90.269531 16.960938 91.660156 14.214844 98.167969 C 13.035156 100.929688 12.457031 103.242188 12.285156 105.710938 L 12.15625 107.753906 L 11.683594 106.945312 C 11.402344 106.5 11.039062 105.511719 10.847656 104.703125 C 10.417969 102.996094 10.523438 101.582031 11.296875 98.238281 C 11.984375 95.296875 12.15625 93.097656 11.855469 91.367188 C 11.511719 89.414062 10.308594 87.035156 8.9375 85.574219 C 7.84375 84.410156 5.246094 82.367188 5.074219 82.546875 C 5.03125 82.589844 5.269531 83.0625 5.613281 83.601562 C 5.953125 84.140625 6.449219 85.125 6.683594 85.824219 C 8.121094 89.839844 7.714844 93.140625 5.097656 98.597656 C 4.476562 99.941406 3.679688 101.875 3.335938 102.929688 C 2.800781 104.679688 2.738281 105.128906 2.738281 108.316406 C 2.714844 111.257812 2.800781 112.089844 3.207031 113.703125 C 3.746094 115.816406 5.546875 119.878906 6.769531 121.761719 C 7.199219 122.4375 7.519531 123 7.476562 123.042969 C 7.347656 123.199219 5.183594 121.15625 4.21875 119.96875 C 2.996094 118.464844 1.707031 115.882812 0.761719 112.984375 L 0.0117188 110.671875 L 0.121094 114.378906 C 0.378906 122.839844 3.125 129.644531 8.722656 135.613281 C 13.808594 141.023438 20.929688 144.820312 31.078125 147.488281 C 44.699219 151.058594 60.8125 150.8125 74.800781 146.792969 C 79.433594 145.449219 82.585938 144.03125 85.847656 141.8125 C 89.988281 139.003906 92.414062 136.042969 94.191406 131.550781 C 94.964844 129.621094 95.394531 127.421875 95.714844 123.917969 C 96.144531 118.753906 97.066406 116.015625 99.0625 113.863281 C 99.597656 113.253906 100.007812 112.738281 99.964844 112.695312 C 99.8125 112.515625 96.082031 113.953125 95.117188 114.558594 C 94.558594 114.871094 93.550781 115.746094 92.882812 116.464844 L 91.660156 117.769531 L 91.984375 116.914062 C 92.457031 115.769531 93.527344 113.90625 95.695312 110.5625 C 98.011719 106.96875 99.0625 104.679688 99.578125 102.007812 C 100.09375 99.449219 100.113281 97.945312 99.683594 95.589844 C 99.0625 92.109375 98.269531 90.199219 95.714844 85.753906 C 92.175781 79.625 91.703125 77.832031 92.414062 73.429688 C 92.820312 70.984375 90.761719 75.09375 90.246094 77.761719 C 89.773438 80.121094 89.988281 81.871094 91.296875 86.585938 C 92.839844 92.152344 93.011719 94.847656 92.070312 98.078125 C 91.316406 100.617188 88.65625 103.894531 86.0625 105.488281 L 85.375 105.890625 L 86.234375 104.253906 C 89.515625 97.878906 90.03125 90.289062 87.628906 84.183594 C 86.941406 82.433594 85.117188 79.179688 83.164062 76.214844 C 79.753906 70.984375 78.855469 68.695312 79.027344 65.707031 C 79.089844 64.742188 79.324219 63.394531 79.582031 62.675781 C 79.820312 61.980469 79.96875 61.398438 79.925781 61.398438 C 79.863281 61.398438 79.410156 61.691406 78.917969 62.050781 C 76.492188 63.800781 75.035156 66.226562 74.628906 69.074219 C 74.433594 70.488281 74.5 71.457031 74.992188 75.652344 C 75.59375 80.972656 75.722656 84.296875 75.269531 83.53125 C 75.121094 83.308594 74.390625 82.296875 73.660156 81.289062 C 70.359375 76.886719 70.207031 75.519531 72.246094 69.097656 C 73.363281 65.597656 73.660156 62.96875 73.191406 60.65625 C 72.589844 57.625 70.378906 54.417969 67.398438 52.285156 C 66.5625 51.699219 65.851562 51.273438 65.808594 51.320312 C 65.746094 51.363281 66.003906 51.925781 66.367188 52.53125 C 68.171875 55.539062 68.8125 57.671875 68.621094 59.984375 C 68.511719 61.464844 68.449219 61.621094 66.109375 66.292969 L 65.167969 68.132812 L 64.136719 66.292969 C 61.625 61.78125 60.703125 57.355469 61.496094 53.496094 C 61.863281 51.609375 62.378906 50.421875 63.902344 47.726562 C 66.691406 42.855469 67.460938 38.859375 66.625 33.761719 C 65.703125 28.21875 63.386719 23.730469 59.050781 19.171875 C 57.292969 17.332031 53.96875 14.480469 53.558594 14.480469 C 53.496094 14.480469 53.839844 15.289062 54.3125 16.277344 C 56.21875 20.269531 57.035156 24.019531 56.777344 27.679688 C 56.691406 28.824219 56.585938 29.746094 56.542969 29.699219 C 56.5 29.632812 56.328125 28.847656 56.15625 27.902344 C 55.726562 25.59375 54.71875 23.617188 52.292969 20.359375 C 49.914062 17.152344 49.054688 15.398438 48.710938 13.109375 C 48.238281 9.898438 49.460938 6.21875 52.402344 1.929688 C 53.109375 0.898438 53.667969 0.0234375 53.625 0 C 53.582031 -0.0234375 52.9375 0.359375 52.144531 0.875 Z M 52.808594 49.546875 C 52.101562 50.847656 50.472656 55.226562 49.890625 57.492188 C 49.355469 59.488281 49.289062 60.097656 49.289062 63.53125 C 49.269531 67.144531 49.289062 67.4375 49.871094 69.253906 C 50.726562 71.902344 51.652344 73.835938 53.6875 77.226562 C 55.898438 80.90625 57.164062 83.53125 57.742188 85.664062 C 58.324219 87.820312 58.539062 91.703125 58.195312 94.152344 C 58.042969 95.183594 57.980469 96.058594 58.023438 96.125 C 58.238281 96.328125 60.554688 93.074219 61.175781 91.683594 C 62.292969 89.167969 62.722656 86.945312 62.636719 83.847656 C 62.59375 82.367188 62.59375 81.152344 62.613281 81.152344 C 62.804688 81.152344 64.007812 84.027344 64.457031 85.53125 C 65.917969 90.425781 65.679688 95.476562 63.75 99.921875 L 63.128906 101.355469 L 58.128906 104.816406 C 49.375 110.875 46.179688 114.175781 43.371094 120.101562 C 41.4375 124.164062 41.117188 125.714844 41.136719 130.652344 C 41.136719 134.269531 41.203125 134.917969 41.71875 136.894531 C 42.277344 139.070312 43.777344 142.730469 44.65625 144.011719 C 44.914062 144.390625 45.066406 144.683594 45 144.683594 C 44.9375 144.683594 44.183594 144.210938 43.328125 143.652344 C 37.449219 139.746094 31.097656 132.628906 28.546875 127.128906 C 28.265625 126.523438 27.964844 126.050781 27.878906 126.050781 C 27.601562 126.050781 27.6875 130.160156 28.007812 131.933594 C 28.375 133.910156 29.125 136.042969 30.089844 137.859375 C 31.035156 139.632812 34.679688 143.449219 36.613281 144.660156 L 38.113281 145.605469 L 37.148438 145.46875 C 36.613281 145.378906 35.21875 145.089844 34.039062 144.796875 C 23.355469 142.191406 15.375 134.875 12.414062 125.019531 C 11.832031 123.109375 11.191406 119.453125 11.210938 118.328125 C 11.210938 117.632812 11.234375 117.632812 11.617188 118.574219 C 12.585938 120.867188 15.117188 123.894531 16.960938 124.996094 L 17.648438 125.421875 L 16.660156 123.894531 C 14.707031 120.84375 13.65625 116.890625 13.679688 112.695312 C 13.679688 109.371094 14.0625 107.664062 15.480469 104.613281 C 16.574219 102.253906 17.710938 100.683594 21.015625 96.824219 C 22.109375 95.542969 23.355469 93.972656 23.78125 93.320312 C 25.929688 89.929688 26.484375 85.84375 25.328125 81.9375 C 25.113281 81.21875 24.984375 80.570312 25.027344 80.523438 C 25.070312 80.480469 25.371094 80.882812 25.691406 81.421875 C 27.664062 84.699219 28.996094 89.730469 28.996094 93.949219 C 28.996094 96.375 28.609375 98.640625 27.578125 102.433594 C 26.742188 105.464844 26.59375 106.339844 26.484375 108.652344 C 26.398438 110.628906 26.464844 111.796875 26.722656 113.007812 C 27.472656 116.757812 29.617188 120.078125 33.007812 122.75 C 33.222656 122.910156 33.242188 122.460938 33.136719 120.730469 C 32.835938 115.589844 33.929688 112.625 39.335938 103.894531 C 42.769531 98.328125 44.035156 94.554688 44.035156 89.910156 C 44.035156 86.71875 43.691406 84.789062 42.320312 80.390625 C 40.601562 74.933594 40.28125 72.21875 40.902344 68.46875 C 41.867188 62.746094 44.785156 57.515625 50.320312 51.609375 C 51.78125 50.082031 53.003906 48.828125 53.089844 48.828125 C 53.152344 48.828125 53.046875 49.164062 52.808594 49.546875 Z M 80.441406 89.460938 C 81.085938 92.242188 81.191406 93.882812 80.914062 96.238281 C 80.570312 98.957031 79.863281 101.179688 78.425781 103.984375 C 77.78125 105.261719 76.707031 107.375 76.042969 108.699219 C 74.90625 110.941406 74.820312 111.234375 74.734375 112.917969 C 74.628906 114.894531 74.84375 115.859375 76.300781 120.191406 C 77.289062 123.066406 77.4375 124.613281 76.964844 126.367188 C 76.28125 128.8125 74.84375 130.496094 72.160156 131.957031 C 70.359375 132.941406 69.070312 133.390625 64.457031 134.671875 C 62.441406 135.234375 60.167969 135.953125 59.417969 136.265625 C 54.910156 138.242188 51.523438 141.945312 50.128906 146.457031 L 49.742188 147.691406 L 49.332031 146.59375 C 48.28125 143.761719 47.832031 141.652344 47.726562 138.890625 C 47.488281 133.640625 48.625 129.574219 51.480469 125.378906 C 53.496094 122.390625 55.683594 120.347656 60.855469 116.621094 C 65.679688 113.121094 67.71875 111.390625 70.617188 108.339844 C 73.746094 105.039062 75.507812 102.570312 77.117188 99.203125 C 78.789062 95.722656 79.648438 92.355469 79.691406 89.101562 C 79.710938 88.066406 79.796875 87.304688 79.863281 87.394531 C 79.949219 87.484375 80.207031 88.40625 80.441406 89.460938 Z M 88.742188 126.636719 C 86.640625 135.457031 79.496094 141.855469 68.492188 144.796875 C 64.585938 145.828125 62.742188 146.074219 57.957031 146.1875 L 53.34375 146.277344 L 54.246094 145.402344 C 56.046875 143.652344 59.03125 142.347656 63.085938 141.542969 C 70.292969 140.082031 74.433594 138.242188 78.984375 134.46875 C 79.753906 133.839844 81.128906 132.941406 82.050781 132.472656 C 84.644531 131.167969 87.261719 128.320312 88.65625 125.332031 C 88.914062 124.75 89.171875 124.300781 89.214844 124.34375 C 89.257812 124.367188 89.042969 125.398438 88.742188 126.636719 Z M 88.742188 126.636719 "/>
<path style=" stroke:none;fill-rule:nonzero;fill:rgb(0%,0%,0%);fill-opacity:1;" d="M 68.941406 20.359375 C 67.503906 23.996094 67.527344 25.90625 69.027344 30.710938 C 70.789062 36.367188 70.507812 39.890625 67.890625 45.324219 L 67.355469 46.425781 L 67.976562 45.953125 C 68.878906 45.28125 71.730469 42.113281 72.480469 40.96875 C 75.335938 36.546875 75.3125 33.246094 72.375 28.757812 C 71.730469 27.746094 70.851562 26.175781 70.421875 25.253906 C 69.691406 23.640625 69.648438 23.460938 69.648438 21.148438 C 69.648438 19.824219 69.628906 18.746094 69.605469 18.746094 C 69.605469 18.746094 69.285156 19.484375 68.941406 20.359375 Z M 68.941406 20.359375 "/>
<path style=" stroke:none;fill-rule:nonzero;fill:rgb(0%,0%,0%);fill-opacity:1;" d="M 81.472656 42.023438 C 77.523438 46.917969 76.730469 50.980469 78.917969 55.382812 C 79.324219 56.191406 79.96875 57.246094 80.355469 57.738281 C 82.78125 60.726562 83.765625 63.058594 83.765625 65.777344 C 83.746094 67.324219 83.617188 68.246094 82.929688 70.9375 C 82.84375 71.277344 82.929688 71.230469 83.359375 70.714844 C 85.375 68.289062 87.179688 64.652344 87.5625 62.25 C 88.078125 59.128906 87.328125 56.929688 84.476562 52.980469 C 82.609375 50.398438 81.984375 48.917969 81.835938 46.695312 C 81.707031 45.054688 82.242188 42.40625 82.953125 40.945312 C 83.53125 39.800781 82.929688 40.25 81.472656 42.023438 Z M 81.472656 42.023438 "/>
<path style=" stroke:none;fill-rule:nonzero;fill:rgb(0%,0%,0%);fill-opacity:1;" d="M 7.585938 64.273438 C 5.332031 67.75 4.601562 70.601562 5.269531 73.273438 C 5.742188 75.25 6.46875 76.550781 8.207031 78.59375 C 9.496094 80.074219 10.4375 81.714844 11.082031 83.511719 C 11.359375 84.296875 11.855469 82.386719 11.984375 80.03125 C 12.132812 77.402344 11.8125 76.035156 10.523438 73.96875 C 8.722656 71.027344 8.316406 69.996094 8.230469 67.910156 C 8.1875 66.695312 8.273438 65.394531 8.488281 64.339844 C 8.679688 63.417969 8.785156 62.632812 8.765625 62.609375 C 8.722656 62.566406 8.207031 63.304688 7.585938 64.273438 Z M 7.585938 64.273438 "/>
</g>
</svg>
