<svg xmlns="http://www.w3.org/2000/svg" viewBox="0 0 53 65" width="53" height="65" role="img" aria-label="Mark of the Orbs">
  <title>Mark of the Orbs</title>
  <g fill="none" stroke="currentColor" stroke-width="3" stroke-linecap="round" stroke-linejoin="round">
    <circle cx="26.5" cy="9.5" r="7.5" />
    <path d="M26.5 2v60" />
    <path d="M26.5 18c-9 5-14 12-14 21s5 15 14 20" />
    <path d="M26.5 18c9 5 14 12 14 21s-5 15-14 20" />
    <path d="M8 34h37" />
    <path d="M3 38h47" />
    <path d="M11 44h31" />
    <path d="M16 29c5-5 16-5 21 0" />
    <path d="M16 50c5 4 16 4 21 0" />
    <path d="M19 22l-7 16 7 17" />
    <path d="M34 22l7 16-7 17" />
    <path d="M21 62h11" />
  </g>
</svg>
