<svg xmlns="http://www.w3.org/2000/svg" xmlns:xlink="http://www.w3.org/1999/xlink" version="1.1" viewBox="61.64 14.59 80.67 110.47">
<g id="surface1">
<path style=" stroke:none;fill-rule:nonzero;fill:rgb(0%,0%,0%);fill-opacity:1;" d="M 98.976562 14.8125 C 98.300781 14.929688 97.140625 15.234375 96.414062 15.488281 C 89.960938 17.664062 85.398438 23.039062 84.34375 29.695312 C 83.613281 34.1875 84.6875 39.070312 87.234375 42.859375 C 88 43.992188 90.644531 46.59375 91.867188 47.390625 C 93.9375 48.769531 97.421875 50.226562 98.640625 50.226562 C 99.070312 50.226562 99.121094 50.292969 99.21875 50.929688 C 99.304688 51.648438 99.265625 52.148438 99.121094 52.296875 C 99.023438 52.402344 96.992188 51.894531 95.566406 51.425781 C 93.125 50.605469 90.773438 49.082031 88.886719 47.109375 C 87.3125 45.449219 87.050781 45.253906 86.074219 45.117188 C 85.476562 45.03125 85.1875 45.097656 84.589844 45.398438 C 83.585938 45.917969 83.210938 46.621094 83.203125 48.046875 L 83.183594 49.171875 L 81.367188 51.09375 C 78.535156 54.09375 76.867188 56.621094 75.429688 60.097656 C 73.429688 64.890625 72.617188 70.632812 73.242188 75.421875 C 73.378906 76.335938 73.429688 77.140625 73.359375 77.207031 C 73.3125 77.273438 70.976562 77.34375 68.183594 77.375 L 63.105469 77.429688 L 62.597656 77.929688 C 61.523438 78.964844 61.328125 80.421875 62.117188 81.542969 C 62.859375 82.597656 62.929688 82.617188 69.226562 82.664062 L 74.953125 82.734375 L 75.460938 84.003906 C 76.71875 87.101562 78.964844 90.421875 81.777344 93.25 C 84.09375 95.59375 86.140625 97.148438 88.742188 98.523438 C 91.671875 100.058594 94.199219 100.898438 97.226562 101.347656 C 99.003906 101.621094 99.304688 101.75 99.304688 102.324219 C 99.304688 102.609375 99.054688 102.625 96.375 102.625 C 87.929688 102.625 87.648438 102.636719 86.882812 103.027344 C 85.851562 103.5625 85.5 104.132812 85.5 105.28125 C 85.5 106.035156 85.578125 106.375 85.90625 106.855469 C 86.621094 107.898438 86.554688 107.898438 93.132812 107.949219 L 99.140625 108 L 99.238281 108.398438 C 99.289062 108.613281 99.304688 108.9375 99.265625 109.101562 C 99.21875 109.382812 98.90625 109.40625 94.492188 109.484375 L 89.765625 109.570312 L 89.121094 110.007812 C 87.832031 110.878906 87.546875 112.6875 88.507812 113.835938 C 89.316406 114.824219 89.433594 114.84375 94.492188 114.84375 L 99.140625 114.84375 L 99.238281 115.292969 C 99.304688 115.527344 99.304688 117.15625 99.257812 118.875 C 99.140625 123.132812 99.375 124.148438 100.664062 124.824219 C 101.375 125.1875 102.742188 125.125 103.367188 124.6875 C 104.433594 123.953125 104.511719 123.601562 104.5625 118.992188 L 104.609375 114.863281 L 109.445312 114.8125 C 113.976562 114.757812 114.304688 114.746094 114.71875 114.421875 C 115.242188 114.023438 115.695312 113.183594 115.789062 112.351562 C 115.90625 111.425781 115.28125 110.359375 114.367188 109.875 C 113.664062 109.5 113.507812 109.484375 109.109375 109.484375 L 104.601562 109.484375 L 104.601562 107.976562 L 110.488281 107.976562 C 116.171875 107.976562 116.40625 107.960938 117 107.625 C 118.730469 106.640625 118.75 104.09375 117.011719 103.054688 C 116.523438 102.773438 116.054688 102.742188 111.828125 102.703125 C 109.257812 102.6875 106.582031 102.675781 105.890625 102.65625 L 104.601562 102.625 L 104.601562 102.15625 C 104.601562 101.699219 104.628906 101.6875 105.890625 101.464844 C 109.539062 100.878906 111.570312 100.195312 114.8125 98.523438 C 121.414062 95.125 126.71875 88.898438 129.082031 81.796875 C 130.539062 77.429688 131.023438 72.304688 130.390625 67.734375 C 130.15625 66.113281 129.578125 63.601562 129.132812 62.296875 C 128.914062 61.6875 128.789062 61.171875 128.820312 61.125 C 128.867188 61.085938 129.265625 61.359375 129.71875 61.710938 C 130.15625 62.0625 131.992188 63.5625 133.796875 65.019531 C 135.617188 66.492188 137.382812 67.9375 137.753906 68.222656 C 138.546875 68.859375 138.976562 69.023438 139.914062 69.003906 C 140.722656 68.992188 141.554688 68.535156 141.984375 67.851562 C 142.429688 67.167969 142.414062 65.625 141.953125 64.902344 C 141.582031 64.355469 134.511719 58.5625 124.179688 50.34375 C 121.164062 47.949219 120.800781 47.609375 120.371094 46.738281 C 119.992188 45.984375 119.746094 45.703125 119.148438 45.398438 C 117.648438 44.628906 116.835938 44.953125 114.902344 47.039062 C 113.066406 49.015625 110.878906 50.460938 108.164062 51.476562 C 107.257812 51.828125 105.058594 52.402344 104.65625 52.402344 C 104.609375 52.402344 104.601562 51.933594 104.628906 51.375 L 104.679688 50.34375 L 106.179688 49.953125 C 111.28125 48.632812 115.4375 45.253906 117.773438 40.59375 C 118.984375 38.203125 119.460938 36.257812 119.589844 33.351562 C 119.707031 30.789062 119.539062 29.5 118.789062 27.117188 C 116.699219 20.476562 111.210938 15.839844 104.101562 14.734375 C 102.695312 14.511719 100.527344 14.550781 98.976562 14.8125 Z M 104.511719 20.34375 C 107.0625 20.996094 108.847656 22.03125 110.632812 23.859375 C 112.21875 25.476562 112.898438 26.582031 113.664062 28.828125 C 114.171875 30.382812 114.238281 30.703125 114.238281 32.460938 C 114.238281 35.90625 113.183594 38.601562 110.8125 41.152344 C 109.304688 42.773438 106.816406 44.316406 105.226562 44.617188 L 104.609375 44.734375 L 104.5625 34.472656 L 104.511719 24.1875 L 104.132812 23.417969 C 103.476562 22.050781 101.570312 21.582031 100.398438 22.5 C 99.171875 23.4375 99.21875 22.988281 99.210938 34.484375 L 99.1875 44.785156 L 98.789062 44.734375 C 98.085938 44.628906 95.996094 43.679688 95.007812 42.988281 C 93.390625 41.90625 91.679688 39.914062 90.820312 38.132812 C 89.289062 34.902344 89.070312 32.179688 90.058594 28.808594 C 91.191406 25.007812 94.539062 21.699219 98.496094 20.527344 C 100.1875 20.019531 102.9375 19.941406 104.511719 20.34375 Z M 88.210938 53.46875 C 88.625 53.769531 89.511719 54.34375 90.195312 54.746094 L 91.414062 55.460938 L 90.527344 56.230469 C 86.882812 59.34375 84.640625 63.078125 83.679688 67.597656 C 83.546875 68.183594 83.429688 68.703125 83.398438 68.71875 C 83.300781 68.820312 78.796875 68.859375 78.703125 68.757812 C 78.574219 68.625 79.101562 65.929688 79.5625 64.382812 C 80.078125 62.726562 81.582031 59.550781 82.492188 58.171875 C 83.925781 56.015625 86.738281 52.898438 87.265625 52.898438 C 87.363281 52.898438 87.78125 53.15625 88.210938 53.46875 Z M 117.460938 53.691406 C 121.269531 57.089844 124.335938 62.910156 125.019531 67.988281 C 125.136719 68.9375 125.085938 68.976562 122.570312 68.976562 C 120.554688 68.976562 120.136719 68.835938 120.136719 68.171875 C 120.136719 67.3125 119.277344 64.707031 118.40625 62.859375 C 117.101562 60.148438 115.332031 57.910156 112.960938 55.96875 L 112.335938 55.449219 L 112.882812 55.175781 C 113.195312 55.03125 114.070312 54.460938 114.851562 53.925781 C 115.625 53.367188 116.335938 52.921875 116.414062 52.921875 C 116.523438 52.898438 116.984375 53.25 117.460938 53.691406 Z M 99.210938 58.964844 C 99.265625 59.628906 99.304688 62.089844 99.265625 64.421875 C 99.238281 68.273438 99.210938 68.671875 98.945312 68.820312 C 98.789062 68.90625 96.542969 68.976562 93.847656 68.976562 L 89.054688 68.953125 L 89.054688 68.574219 C 89.054688 68.015625 89.617188 66.464844 90.3125 65.070312 C 91.777344 62.089844 94.414062 59.550781 97.15625 58.429688 C 97.65625 58.222656 98.210938 57.988281 98.398438 57.921875 C 99.042969 57.65625 99.109375 57.742188 99.210938 58.964844 Z M 106.0625 58.242188 C 110.039062 59.695312 113.3125 63.445312 114.523438 67.851562 C 114.695312 68.554688 114.695312 68.691406 114.5 68.820312 C 114.367188 68.90625 112.117188 68.953125 109.472656 68.925781 L 104.679688 68.886719 L 104.628906 63.3125 C 104.609375 60.265625 104.628906 57.753906 104.679688 57.753906 C 104.71875 57.753906 105.34375 57.976562 106.0625 58.242188 Z M 83.328125 74.367188 C 83.367188 74.484375 83.546875 75.449219 83.75 76.503906 C 84.6875 81.425781 87.335938 85.75 91.25 88.796875 C 93.203125 90.304688 96.308594 91.757812 98.496094 92.15625 C 99.070312 92.273438 99.109375 92.296875 99.210938 93.132812 C 99.257812 93.613281 99.304688 94.472656 99.304688 95.039062 C 99.304688 96.0625 99.289062 96.09375 98.898438 96.09375 C 98.144531 96.09375 95.96875 95.59375 94.421875 95.058594 C 91.671875 94.101562 89.460938 92.84375 87.117188 90.839844 C 82.46875 86.882812 79.707031 81.914062 78.71875 75.75 C 78.601562 75.019531 78.535156 74.367188 78.585938 74.277344 C 78.625 74.210938 79.695312 74.160156 80.96875 74.160156 C 82.664062 74.160156 83.28125 74.210938 83.328125 74.367188 Z M 99.171875 75.371094 C 99.1875 76.035156 99.210938 78.835938 99.21875 81.5625 C 99.238281 87.234375 99.382812 86.789062 97.6875 86.203125 C 94.707031 85.175781 91.515625 82.078125 90.03125 78.769531 C 89.414062 77.390625 88.652344 74.746094 88.789062 74.414062 C 88.867188 74.199219 89.628906 74.160156 94.015625 74.160156 L 99.140625 74.160156 Z M 114.851562 74.71875 C 114.851562 75.617188 114.199219 77.675781 113.445312 79.238281 C 112.039062 82.0625 110.214844 83.992188 107.441406 85.578125 C 106.816406 85.929688 104.726562 86.75 104.648438 86.671875 C 104.609375 86.632812 104.5625 75.421875 104.601562 74.367188 C 104.601562 74.210938 105.742188 74.160156 109.726562 74.160156 L 114.851562 74.160156 Z M 125.148438 74.277344 C 125.359375 74.648438 124.71875 77.832031 123.992188 80.019531 C 121.445312 87.792969 114.40625 94.21875 106.679688 95.828125 C 106.007812 95.976562 105.242188 96.09375 105.007812 96.09375 L 104.601562 96.09375 L 104.601562 92.273438 L 105.800781 91.992188 C 107.296875 91.640625 108.808594 91.035156 110.304688 90.203125 C 113.574219 88.328125 116.621094 85.125 118.273438 81.777344 C 119.101562 80.136719 120.03125 76.960938 120.242188 75.085938 L 120.351562 74.160156 L 122.726562 74.160156 C 124.015625 74.160156 125.117188 74.210938 125.148438 74.277344 Z M 125.148438 74.277344 "/>
</g>
</svg>